HIERARCHY
ROOT hip
{
  OFFSET 0 0 0
  CHANNELS 6 Xposition Yposition Zposition Zrotation Yrotation Xrotation
  JOINT abdomen
  {
    OFFSET 0 20.6881 -0.73152
    CHANNELS 3 Zrotation Xrotation Yrotation
    JOINT chest
    {
      OFFSET 0 11.7043 -0.48768
      CHANNELS 3 Zrotation Xrotation Yrotation
      JOINT neck
      {
        OFFSET 0 22.1894 -2.19456
        CHANNELS 3 Zrotation Xrotation Yrotation
        JOINT head
        {
          OFFSET -0.24384 7.07133 1.2192
          CHANNELS 3 Zrotation Xrotation Yrotation
          JOINT leftEye
          {
            OFFSET 4.14528 8.04674 8.04672
            CHANNELS 3 Zrotation Xrotation Yrotation
            End Site
            {
              OFFSET 1 0 0
            }
          }
          JOINT rightEye
          {
            OFFSET -3.6576 8.04674 8.04672
            CHANNELS 3 Zrotation Xrotation Yrotation
            End Site
            {
              OFFSET 1 0 0
            }
          }
        }
      }
      JOINT rCollar
      {
        OFFSET -2.68224 19.2634 -4.8768
        CHANNELS 3 Zrotation Xrotation Yrotation
        JOINT rShldr
        {
          OFFSET -8.77824 -1.95073 1.46304
          CHANNELS 3 Zrotation Xrotation Yrotation
          JOINT rForeArm
          {
            OFFSET -28.1742 -1.7115 0.48768
            CHANNELS 3 Zrotation Xrotation Yrotation
            JOINT rHand
            {
              OFFSET -22.5879 0.773209 7.07136
              CHANNELS 3 Zrotation Xrotation Yrotation
              JOINT rThumb1
              {
                OFFSET -1.2192 -0.487915 3.41376
                CHANNELS 3 Zrotation Xrotation Yrotation
                JOINT rThumb2
                {
                  OFFSET -3.37035 -0.52449 3.41376
                  CHANNELS 3 Zrotation Xrotation Yrotation
                  End Site
                  {
                    OFFSET -1.78271 -1.18214 1.43049
                  }
                }
              }
              JOINT rIndex1
              {
                OFFSET -7.75947 0.938293 5.60832
                CHANNELS 3 Zrotation Xrotation Yrotation
                JOINT rIndex2
                {
                  OFFSET -2.54057 -0.884171 1.56538
                  CHANNELS 3 Zrotation Xrotation Yrotation
                  End Site
                  {
                    OFFSET -1.62519 -0.234802 1.16502
                  }
                }
              }
              JOINT rMid1
              {
                OFFSET -8.24714 1.18213 3.41376
                CHANNELS 3 Zrotation Xrotation Yrotation
                JOINT rMid2
                {
                  OFFSET -3.10165 -0.590103 1.0647
                  CHANNELS 3 Zrotation Xrotation Yrotation
                  End Site
                  {
                    OFFSET -2.48547 -0.328903 0.83742
                  }
                }
              }
              JOINT rRing1
              {
                OFFSET -8.82822 0.546677 1.51678
                CHANNELS 3 Zrotation Xrotation Yrotation
                JOINT rRing2
                {
                  OFFSET -2.60934 -0.819778 -0.0198488
                  CHANNELS 3 Zrotation Xrotation Yrotation
                  End Site
                  {
                    OFFSET -2.33842 -0.294052 0.168128
                  }
                }
              }
              JOINT rPinky1
              {
                OFFSET -8.27202 -0.0477905 -0.4584
                CHANNELS 3 Zrotation Xrotation Yrotation
                JOINT rPinky2
                {
                  OFFSET -1.82734 -0.647385 -0.700984
                  CHANNELS 3 Zrotation Xrotation Yrotation
                  End Site
                  {
                    OFFSET -1.69225 -0.51767 -0.607171
                  }
                }
              }
            }
          }
        }
      }
      JOINT lCollar
      {
        OFFSET 2.68224 19.2634 -4.8768
        CHANNELS 3 Zrotation Xrotation Yrotation
        JOINT lShldr
        {
          OFFSET 8.77824 -1.95073 1.46304
          CHANNELS 3 Zrotation Xrotation Yrotation
          JOINT lForeArm
          {
            OFFSET 28.1742 -1.7115 0.48768
            CHANNELS 3 Zrotation Xrotation Yrotation
            JOINT lHand
            {
              OFFSET 22.5879 0.773209 7.07136
              CHANNELS 3 Zrotation Xrotation Yrotation
              JOINT lThumb1
              {
                OFFSET 1.2192 -0.487915 3.41376
                CHANNELS 3 Zrotation Xrotation Yrotation
                JOINT lThumb2
                {
                  OFFSET 3.37035 -0.52449 3.41376
                  CHANNELS 3 Zrotation Xrotation Yrotation
                  End Site
                  {
                    OFFSET 1.78271 -1.18214 1.43049
                  }
                }
              }
              JOINT lIndex1
              {
                OFFSET 7.75947 0.938293 5.60832
                CHANNELS 3 Zrotation Xrotation Yrotation
                JOINT lIndex2
                {
                  OFFSET 2.54057 -0.884171 1.56538
                  CHANNELS 3 Zrotation Xrotation Yrotation
                  End Site
                  {
                    OFFSET 1.62519 -0.234802 1.16502
                  }
                }
              }
              JOINT lMid1
              {
                OFFSET 8.24714 1.18213 3.41376
                CHANNELS 3 Zrotation Xrotation Yrotation
                JOINT lMid2
                {
                  OFFSET 3.10165 -0.590103 1.0647
                  CHANNELS 3 Zrotation Xrotation Yrotation
                  End Site
                  {
                    OFFSET 2.48547 -0.328903 0.83742
                  }
                }
              }
              JOINT lRing1
              {
                OFFSET 8.82822 0.546677 1.51678
                CHANNELS 3 Zrotation Xrotation Yrotation
                JOINT lRing2
                {
                  OFFSET 2.60934 -0.819778 -0.0198488
                  CHANNELS 3 Zrotation Xrotation Yrotation
                  End Site
                  {
                    OFFSET 2.33842 -0.294052 0.168128
                  }
                }
              }
              JOINT lPinky1
              {
                OFFSET 8.27202 -0.0477905 -0.4584
                CHANNELS 3 Zrotation Xrotation Yrotation
                JOINT lPinky2
                {
                  OFFSET 1.82734 -0.647385 -0.700984
                  CHANNELS 3 Zrotation Xrotation Yrotation
                  End Site
                  {
                    OFFSET 1.69225 -0.51767 -0.607171
                  }
                }
              }
            }
          }
        }
      }
    }
  }
  JOINT rButtock
  {
    OFFSET -8.77824 4.35084 1.2192
    CHANNELS 3 Zrotation Xrotation Yrotation
    JOINT rThigh
    {
      OFFSET 0 -1.70687 -2.19456
      CHANNELS 3 Zrotation Xrotation Yrotation
      JOINT rShin
      {
        OFFSET 0 -36.8199 0.73152
        CHANNELS 3 Zrotation Xrotation Yrotation
        JOINT rFoot
        {
          OFFSET 0.73152 -45.1104 -5.12064
          CHANNELS 3 Zrotation Xrotation Yrotation
          End Site
          {
            OFFSET -1.1221 -3.69964 12.103
          }
        }
      }
    }
  }
  JOINT lButtock
  {
    OFFSET 8.77824 4.35084 1.2192
    CHANNELS 3 Zrotation Xrotation Yrotation
    JOINT lThigh
    {
      OFFSET 0 -1.70687 -2.19456
      CHANNELS 3 Zrotation Xrotation Yrotation
      JOINT lShin
      {
        OFFSET 0 -36.8199 0.73152
        CHANNELS 3 Zrotation Xrotation Yrotation
        JOINT lFoot
        {
          OFFSET -0.73152 -45.1104 -5.12064
          CHANNELS 3 Zrotation Xrotation Yrotation
          End Site
          {
            OFFSET 1.1221 -3.69964 12.103
          }
        }
      }
    }
  }
}
MOTION
Frames:	4
Frame Time:	0.03333
3.7196347918361425 0.8805575966835022 64.65824327617884 -15.025555193424225 -25.950487554073334 7.897187769412994 15.64527690410614 5.854177325963974 6.153974533081055 0.30570946633815765 -7.573101818561554 2.7091660536825657 0.0734291598200798 12.544698268175125 7.131277620792389 3.8338228315114975 -23.758068680763245 14.542685151100159 -0.43807748705148697 -0.7927014771848917 0.31180637888610363 0.07140651228837669 0.04963129700627178 -0.4195914510637522 0.1936290878802538 -0.07201827596873045 -0.3767128614708781 107.40593791007996 42.391385436058044 -61.663910150527954 -26.9399356842041 -42.501972913742065 89.66411232948303 -4.633638449013233 -58.039623498916626 -12.815323770046234 -0.3994022123515606 0.284563098102808 0.9808523207902908 -0.09880029014311731 0.43461437802761793 -0.11514524230733514 0.19794438499957323 0.2704146970063448 -0.06111886817961931 8.21673072874546 6.0131994634866714 0.688623427413404 0.02415387105429545 -0.07701948517933488 0.25431832065805793 2.7412088960409164 1.2208687048405409 0.5022516846656799 0.47238608356565237 -0.03973751328885555 0.0003012979868799448 10.504958108067513 0.3257271274924278 0.3183962730690837 0.11787788942456245 -0.2640689047984779 -0.254735026974231 2.666572406888008 -1.1450541391968727 -0.4078822676092386 -0.3286316664889455 -0.22826095344498754 0.41543394327163696 -60.76740860939026 -11.87566950917244 -69.47461009025574 9.01267558336258 -2.4199023842811584 -13.159944713115692 10.988414213061333 58.49949896335602 -14.691711366176605 0.024785612476989627 0.11706528486683965 -0.37246051244437695 0.011917499941773713 0.022990701254457235 -0.4209264786913991 -0.5776899866759777 -0.32435500994324684 -0.4134802892804146 -8.177553713321686 5.84347665309906 -0.9237997233867645 0.6381004583090544 0.43381340336054564 0.18254858907312155 -3.041319251060486 1.6311847418546677 0.4258306045085192 0.6530479062348604 -0.012027492775814608 0.13558689155615866 -10.53557351231575 1.3015026971697807 0.04675330768804997 -0.09453654172830284 -0.10113190510310233 0.07349290943238884 -2.438660580664873 -1.2862766347825527 0.1706267986446619 -0.1036331383511424 -0.3102049953304231 -0.306162026245147 -11.86514988541603 15.137058645486832 -3.718886822462082 -0.016281679272651672 27.923399806022644 1.437423974275589 -10.791627913713455 -15.516172796487808 -33.94603729248047 0.10280733229592443 -0.1998889446258545 -0.15471039223484695 85.3611946105957 -53.55034589767456 72.49735236167908 8.39822843670845 74.32624340057373 -2.3817000165581703 -3.2903150841593742 5.0571562349796295 -11.789995729923248
3.653331210836768 0.7119003534317017 64.82013177126646 -16.747514605522156 -27.125598192214966 7.061631381511688 15.725354254245758 5.96308708190918 5.8920541405677795 0.4396556317806244 -7.5094811618328094 2.679346762597561 0.17603203654289246 12.62041836977005 7.030394375324249 3.633379340171814 -23.75434309244156 14.410802274942398 -0.44737817253917456 -0.8092240523546934 0.35304341465234756 0.12132033705711365 0.08220242976676673 -0.42153492104262114 0.21025605965405703 -0.07251956616528332 -0.42252557817846537 107.82971620559692 41.801347732543945 -62.353296875953674 -26.89026653766632 -42.46535003185272 89.40297245979309 -5.036595426499844 -57.66342222690582 -13.149586021900177 -0.40265527088195086 0.2734989859163761 1.0248779319226742 -0.07997741689905524 0.46560881193727255 -0.11653523426502943 0.1929432386532426 0.26586812222376466 -0.07904456346295774 8.150707483291626 5.980526804924011 0.6676239520311356 0.02430771040963009 -0.00994416419416666 0.20662527065724134 2.720765434205532 1.1809228174388409 0.5275766830891371 0.49683835823088884 -0.06785259582102299 0.010896206949837506 10.46696126461029 0.30721929855644703 0.29890524689108133 0.16815862152725458 -0.2634506137110293 -0.30596144730225205 2.6577164232730865 -1.12346101552248 -0.39717715233564377 -0.34856018610298634 -0.2407448343001306 0.3637771541252732 -58.956997990608215 -9.200793653726578 -67.79580473899841 9.618230536580086 -3.298681229352951 -14.97887670993805 10.257542431354523 54.33980047702789 -13.164706975221634 0.005004719132557511 0.08365406538359821 -0.32801647670567036 0.020919538219459355 0.028285696171224117 -0.450095166452229 -0.5606210790574551 -0.328474841080606 -0.43137908913195133 -8.126725852489471 5.82492783665657 -0.902384128421545 0.674332408234477 0.4463942628353834 0.18904699478298426 -2.976952940225601 1.5786989405751228 0.44689897913485765 0.7174730580300093 -0.0229373766342178 0.1402105379384011 -10.524953976273537 1.2719992361962795 0.05328531959094107 -0.051425459096208215 -0.09313768590800464 0.06175295391585678 -2.417980246245861 -1.2470571231096983 0.17266557086259127 -0.06604894646443427 -0.3309679334051907 -0.2842619991861284 -11.490537822246552 14.570847004652023 -3.4984736144542694 0.8729980140924454 28.486371338367462 1.6064715385437012 -10.648728534579277 -15.676399916410446 -33.403544425964355 0.09519101120531559 -0.1899972721002996 -0.160976032493636 85.27544975280762 -53.31291139125824 72.17748284339905 7.762347757816315 74.90793943405151 -2.2006864473223686 -2.845965586602688 4.277907460927963 -11.761963963508606
3.5934230405837297 0.5273236632347107 64.99717762321234 -18.94108146429062 -25.898412466049194 9.394364655017853 15.32582312822342 5.705395191907883 5.161705389618874 0.8973220456391573 -7.567068859934807 2.5468043982982635 0.18628042191267014 12.74583712220192 6.916007548570633 3.6664436012506485 -23.763199746608734 14.215123057365417 -0.4782364843413234 -0.9128374513238668 0.4253589967265725 0.20376857137307525 0.09177727159112692 -0.41288630571216345 0.2886651596054435 0.021092176612000912 -0.46997993253171444 109.40146923065186 40.598076581954956 -65.32919704914093 -26.53409332036972 -42.73240685462952 90.01453757286072 -3.633299209177494 -58.614442348480225 -11.593696922063828 -0.44850084464997053 0.38421453908085823 1.1385234631597996 -0.10288465535268188 0.5102966353297234 -0.16293216962367296 0.17986686201766133 0.2739868964999914 -0.15085562830790877 8.075918778777122 6.007761284708977 0.6340364506468177 -0.01263805286725983 0.030781009700149298 0.23082495667040348 2.731770873069763 1.1752021685242653 0.5675057228654623 0.5984048126265407 -0.16705581452697515 -0.02631132840178907 10.399873182177544 0.3118977416306734 0.3221029182896018 0.15053147915750742 -0.2468698052689433 -0.3172550769522786 2.6804615557193756 -1.1228005215525627 -0.35721274092793465 -0.3903353400528431 -0.28563403291627765 0.36923461128026247 -58.14944386482239 -8.537241965532303 -67.87065982818604 9.440587162971497 -3.2752668857574463 -14.958312213420868 8.911141231656075 53.01598012447357 -13.075880259275436 -0.011247728252783418 0.0674398394767195 -0.312851769849658 0.02831646299455315 0.03336567431688309 -0.5169137287884951 -0.5221271049231291 -0.4129398660734296 -0.46679782681167126 -8.056063055992126 5.7767553627491 -0.8132531493902206 0.7245605438947678 0.4597289487719536 0.2609879896044731 -2.866763100028038 1.591054704040289 0.48133992590010166 0.8597548585385084 -0.025078219478018582 0.17629133071750402 -10.478140711784363 1.2200481165200472 0.1412313594482839 -0.030996560817584395 -0.11916958261281252 0.04514046187978238 -2.371889501810074 -1.182411191985011 0.12047233991324902 -0.04187063954304904 -0.32801379449665546 -0.24414465995505452 -10.85363119840622 14.161930829286575 -2.0988111197948456 -1.6248319298028946 28.11349332332611 1.5308412909507751 -10.829289481043816 -15.73242723941803 -33.49603772163391 0.07329196901991963 -0.1851691072806716 -0.17710408195853233 84.63406920433044 -53.77029776573181 71.52175784111023 6.306246221065521 74.3898332118988 -2.1261069551110268 -3.067750073969364 4.846749007701874 -12.395399808883667
3.5385991167277098 0.3709956705570221 65.14792134612799 -22.400064915418625 -24.18186843395233 11.32797047495842 14.681171625852585 6.148046180605888 4.502013400197029 1.3548134453594685 -7.644030824303627 2.444056011736393 -0.03422331064939499 12.993352711200714 6.305843889713287 3.9722915366292 -23.788940906524658 13.226871192455292 -0.4833864513784647 -0.9956670831888914 0.472962842322886 0.29015051666647196 0.08804913726635277 -0.37997497245669365 0.40317390114068985 0.08931397693231702 -0.534547995775938 109.85801339149475 40.92305839061737 -64.5822823047638 -26.363582611083984 -42.29866147041321 89.46980237960815 -2.1963613852858543 -59.126771092414856 -10.894515439867973 -0.4728200985118747 0.4428404616191983 1.184539943933487 -0.13038381468504667 0.4969959380105138 -0.14728369074873626 0.1697946118656546 0.2356277871876955 -0.20664700074121356 8.013427332043648 6.033861190080643 0.5686307419091463 -0.02429982618195936 0.056024902733042836 0.23728201864287257 2.740230727940798 1.1839092057198286 0.6246868567541242 0.6851221388205886 -0.21756155882030725 -0.051615036791190505 10.328457355499268 0.3215284226462245 0.3414498595520854 0.18994132289662957 -0.19421678502112627 -0.31558450078591704 2.646287865936756 -1.0961577203124762 -0.3048038645647466 -0.40178556460887194 -0.3037197492085397 0.38154670502990484 -56.03333652019501 -6.383589059114456 -68.77216100692749 9.799081832170486 -3.999325856566429 -16.61223202943802 6.755822002887726 49.8285448551178 -11.244728118181229 -0.008775433525443077 0.09694262989796698 -0.2858167374506593 0.03477402788121253 0.05420677363872528 -0.5501443706452847 -0.48269984778016806 -0.45445840805768967 -0.5290756188333035 -7.973243817687035 5.70913553237915 -0.7592971622943878 0.7674167118966579 0.4716684250161052 0.2717716433107853 -2.7901310473680496 1.5811650641262531 0.4987986758351326 0.9591570217162371 -0.007818216254236177 0.1991277001798153 -10.43507382273674 1.1791953071951866 0.1647450914606452 0.049896579002961516 -0.09972378727979958 0.05829559697303921 -2.300777602940798 -1.1569440364837646 0.10263099800795317 0.0018811819609254599 -0.35346435382962227 -0.19618825055658817 -11.059793829917908 12.422351986169815 -1.6657081246376038 -2.6593854278326035 29.249972105026245 3.4136487543582916 -10.45488327741623 -16.67012482881546 -31.94035917520523 0.07833883864805102 -0.2110373368486762 -0.23040087427943945 84.63426232337952 -52.96051740646362 72.22870230674744 6.509257256984711 74.26467597484589 -3.780500181019306 -2.6959818229079247 3.907391130924225 -11.750982999801636
